<?xml version="1.0" encoding="UTF-8" standalone="no"?>
<svg width="480px" height="28px" viewBox="0 0 480 28" version="1.1" xmlns="http://www.w3.org/2000/svg" xmlns:xlink="http://www.w3.org/1999/xlink" xmlns:sketch="http://www.bohemiancoding.com/sketch/ns">
    <!-- Generator: Sketch 3.5.2 (25235) - http://www.bohemiancoding.com/sketch -->
    <title>Untitled</title>
    <desc>Created with Sketch.</desc>
    <defs></defs>
    <g id="Page-1" stroke="none" stroke-width="1" fill="none" fill-rule="evenodd" sketch:type="MSPage">
        <g id="Browser" sketch:type="MSLayerGroup">
            <path d="M6.99375379,0 C3.13121023,0 0,3.1278258 0,6.99275661 L0,27.5 L480,27.5 L480,6.99275661 C480,3.13076377 476.871675,0 473.006246,0 L6.99375379,0 Z" id="background" fill="#D4D4D4" sketch:type="MSShapeGroup"></path>
            <ellipse id="object" fill="#E96E4C" sketch:type="MSShapeGroup" cx="12.776618" cy="14.25" rx="3.75782881" ry="3.75"></ellipse>
            <path d="M24.3006263,18 C26.3760178,18 28.0584551,16.3210678 28.0584551,14.25 C28.0584551,12.1789322 26.3760178,10.5 24.3006263,10.5 C22.2252348,10.5 20.5427975,12.1789322 20.5427975,14.25 C20.5427975,16.3210678 22.2252348,18 24.3006263,18 Z" id="object" fill="#E6AA34" sketch:type="MSShapeGroup"></path>
            <ellipse id="object" fill="#85C33D" sketch:type="MSShapeGroup" cx="35.8246347" cy="14.25" rx="3.75782881" ry="3.75"></ellipse>
            <rect id="search" opacity="0.85" fill="#FFFFFF" sketch:type="MSShapeGroup" x="48.6012526" y="7.5" width="416.898747" height="13.5"></rect>
        </g>
    </g>
</svg>